<?xml version="1.0" encoding="UTF-8" standalone="no"?>
<!-- Created with Inkscape (http://www.inkscape.org/) -->

<svg
   width="400"
   height="400"
   id="svg2"
   version="1.1"
   inkscape:version="1.2.1 (9c6d41e410, 2022-07-14)"
   sodipodi:docname="foreground_scroller.svg"
   inkscape:export-filename="scrolltext1.png"
   inkscape:export-xdpi="96"
   inkscape:export-ydpi="96"
   xmlns:inkscape="http://www.inkscape.org/namespaces/inkscape"
   xmlns:sodipodi="http://sodipodi.sourceforge.net/DTD/sodipodi-0.dtd"
   xmlns="http://www.w3.org/2000/svg"
   xmlns:svg="http://www.w3.org/2000/svg"
   xmlns:rdf="http://www.w3.org/1999/02/22-rdf-syntax-ns#"
   xmlns:cc="http://creativecommons.org/ns#"
   xmlns:dc="http://purl.org/dc/elements/1.1/">
  <defs
     id="defs4">
    <linearGradient
       id="linearGradient5131">
      <stop
         style="stop-color:#9f70e0;stop-opacity:1;"
         offset="0"
         id="stop5133" />
      <stop
         id="stop4076"
         offset="0.5"
         style="stop-color:#8bcbc3;stop-opacity:0.58552629;" />
      <stop
         style="stop-color:#9f70e0;stop-opacity:1;"
         offset="1"
         id="stop5135" />
    </linearGradient>
    <filter
       style="color-interpolation-filters:sRGB"
       inkscape:label="Drop Shadow"
       id="filter5869"
       x="-0.0086031156"
       y="-0.099740282"
       width="1.0172062"
       height="1.1994807">
      <feFlood
         flood-opacity="1"
         flood-color="rgb(255,255,255)"
         result="flood"
         id="feFlood5871" />
      <feComposite
         in="flood"
         in2="SourceGraphic"
         operator="in"
         result="composite1"
         id="feComposite5873" />
      <feGaussianBlur
         in="composite1"
         stdDeviation="1"
         result="blur"
         id="feGaussianBlur5875" />
      <feOffset
         dx="0"
         dy="0"
         result="offset"
         id="feOffset5877" />
      <feComposite
         in="SourceGraphic"
         in2="offset"
         operator="over"
         result="composite2"
         id="feComposite5879" />
    </filter>
    <filter
       style="color-interpolation-filters:sRGB;"
       inkscape:label="Drop Shadow"
       id="filter5351"
       x="-0.015212346"
       y="-0.056375492"
       width="1.0304247"
       height="1.112751">
      <feFlood
         flood-opacity="1"
         flood-color="rgb(0,0,0)"
         result="flood"
         id="feFlood5341" />
      <feComposite
         in="flood"
         in2="SourceGraphic"
         operator="in"
         result="composite1"
         id="feComposite5343" />
      <feGaussianBlur
         in="composite1"
         stdDeviation="2"
         result="blur"
         id="feGaussianBlur5345" />
      <feOffset
         dx="0"
         dy="0"
         result="offset"
         id="feOffset5347" />
      <feComposite
         in="SourceGraphic"
         in2="offset"
         operator="over"
         result="composite2"
         id="feComposite5349" />
    </filter>
    <filter
       style="color-interpolation-filters:sRGB;"
       inkscape:label="Drop Shadow"
       id="filter6089"
       x="-0.0024481365"
       y="-0.0030000057"
       width="1.0048963"
       height="1.006">
      <feFlood
         flood-opacity="1"
         flood-color="rgb(0,0,0)"
         result="flood"
         id="feFlood6079" />
      <feComposite
         in="flood"
         in2="SourceGraphic"
         operator="in"
         result="composite1"
         id="feComposite6081" />
      <feGaussianBlur
         in="composite1"
         stdDeviation="2"
         result="blur"
         id="feGaussianBlur6083" />
      <feOffset
         dx="0"
         dy="0"
         result="offset"
         id="feOffset6085" />
      <feComposite
         in="SourceGraphic"
         in2="offset"
         operator="over"
         result="composite2"
         id="feComposite6087" />
    </filter>
  </defs>
  <sodipodi:namedview
     id="base"
     pagecolor="#ffffff"
     bordercolor="#666666"
     borderopacity="1.0"
     inkscape:pageopacity="0"
     inkscape:pageshadow="2"
     inkscape:zoom="1.6500677"
     inkscape:cx="193.93143"
     inkscape:cy="189.08315"
     inkscape:document-units="px"
     inkscape:current-layer="layer1"
     showgrid="false"
     fit-margin-top="0"
     fit-margin-left="0"
     fit-margin-right="0"
     fit-margin-bottom="0"
     inkscape:window-width="1920"
     inkscape:window-height="1017"
     inkscape:window-x="-8"
     inkscape:window-y="-8"
     inkscape:window-maximized="1"
     inkscape:showpageshadow="2"
     inkscape:pagecheckerboard="0"
     inkscape:deskcolor="#d1d1d1" />
  <metadata
     id="metadata7">
    <rdf:RDF>
      <cc:Work
         rdf:about="">
        <dc:format>image/svg+xml</dc:format>
        <dc:type
           rdf:resource="http://purl.org/dc/dcmitype/StillImage" />
      </cc:Work>
    </rdf:RDF>
  </metadata>
  <g
     inkscape:label="Layer 1"
     inkscape:groupmode="layer"
     id="layer1"
     transform="translate(-73.999992,-356.36215)">
    <text
       xml:space="preserve"
       style="font-size:25.7672px;line-height:19.4542px;fill:#ffffff;stroke:none;stroke-width:0.997;stroke-linecap:round;stroke-linejoin:round;stroke-dasharray:none;stroke-opacity:1;filter:url(#filter5351)"
       x="278.80127"
       y="454.69846"
       id="text2200"><tspan
         style="font-style:normal;font-variant:normal;font-weight:normal;font-stretch:normal;font-size:25.7672px;font-family:'Treasure Map Deadhand';-inkscape-font-specification:'Treasure Map Deadhand';text-align:center;text-anchor:middle;fill:#ffffff;stroke:none;stroke-width:0.997;stroke-dasharray:none;stroke-opacity:1"
         sodipodi:role="line"
         id="tspan3708"
         x="278.80127"
         y="454.69846">Hello and Welcome to our wonderful </tspan><tspan
         sodipodi:role="line"
         x="278.80127"
         y="475.12881"
         style="font-style:normal;font-variant:normal;font-weight:normal;font-stretch:normal;font-size:25.7672px;font-family:'Treasure Map Deadhand';-inkscape-font-specification:'Treasure Map Deadhand';text-align:center;text-anchor:middle;fill:#ffffff;stroke:none;stroke-width:0.997;stroke-dasharray:none;stroke-opacity:1"
         id="tspan2530">release for Nordlicht 2022, mostly</tspan><tspan
         sodipodi:role="line"
         x="278.80127"
         y="495.55917"
         style="font-style:normal;font-variant:normal;font-weight:normal;font-stretch:normal;font-size:25.7672px;font-family:'Treasure Map Deadhand';-inkscape-font-specification:'Treasure Map Deadhand';text-align:center;text-anchor:middle;fill:#ffffff;stroke:none;stroke-width:0.997;stroke-dasharray:none;stroke-opacity:1"
         id="tspan2532">thrown together right here</tspan><tspan
         sodipodi:role="line"
         x="278.80127"
         y="515.98956"
         style="font-style:normal;font-variant:normal;font-weight:normal;font-stretch:normal;font-size:25.7672px;font-family:'Treasure Map Deadhand';-inkscape-font-specification:'Treasure Map Deadhand';text-align:center;text-anchor:middle;fill:#ffffff;stroke:none;stroke-width:0.997;stroke-dasharray:none;stroke-opacity:1"
         id="tspan2534">at the party</tspan></text>
    <text
       xml:space="preserve"
       style="font-style:normal;font-variant:normal;font-weight:normal;font-stretch:normal;line-height:0%;font-family:Impact;-inkscape-font-specification:Impact;letter-spacing:0px;word-spacing:0px;fill:#000000;fill-opacity:1;stroke:none;stroke-width:1px;stroke-linecap:butt;stroke-linejoin:miter;stroke-opacity:1"
       x="401.14285"
       y="529.07642"
       id="text4146"><tspan
         sodipodi:role="line"
         x="401.14285"
         y="529.07642"
         id="tspan4150"
         style="font-size:32px;line-height:1.25"> </tspan></text>
    <g
       id="g3001"
       style="fill:#ffffff;stroke:none;filter:url(#filter6089)"
       transform="matrix(0.19631573,0,0,0.1410568,74.804835,359.08955)">
	<path
   d="m 1015.54,1552.988 c -6.931,-0.707 -14.217,-3.817 -20.948,-9.653 16.258,-209.44 -555.581,-397.896 -764.537,-256.913 -103.945,70.946 -17.43,167.13 41.226,140.085 25.038,-11.361 19.616,-46.994 -4.932,-52.109 -10.307,-2.614 -21.425,6.393 -21.691,16.833 -0.295,3.204 2.437,5.242 4.179,7.471 -37.525,3.484 -43.665,-47.773 -20.85,-83.295 54.214,-85.441 244.214,-65.568 344.46,-42.689 58.78,14.753 76.641,59.561 38.672,60.673 19.046,-21.316 -17.029,-34.585 -27.73,-14.057 -10.028,20.799 16.648,42.235 40.828,34.375 29.914,-8.826 33.763,-34.638 16.804,-51.533 -6.379,-7.294 -14.958,-11.931 -22.946,-17.173 55.448,18.817 119.358,54.451 108.043,112.132 -5.432,31.167 -41.515,20.224 -43.604,-3.943 -27.285,8.899 -32.655,25.624 -24.94,41.507 25.377,52.771 118.422,27.125 102.402,-45.066 -9.012,-39.466 -37.364,-65.364 -73.564,-82.261 7.218,1.632 93.642,33.661 162.352,86.765 10.724,8.485 7.505,44.396 -34.449,16.744 -16.861,-10.748 -33,-36.411 -54.147,-53.512 -9.583,-9.731 -20.347,-18.147 -30.92,-26.771 -1.403,0.369 -2.865,2.51 0.074,2.982 91.051,94.271 -22.076,137.436 14.338,192.297 -6.152,-25.674 1.299,-28.373 23.921,-43.161 29.062,-17.829 37.936,-43.222 28.026,-74.14 26.177,31.858 64.424,37.907 79.677,22.71 47.748,40.703 16.462,68.399 1.078,55.358 7.073,-0.989 13.85,-7.929 10.454,-15.298 -5.98,-8.845 -20.598,-7.384 -26.519,0.93 -8.122,8.919 -3.617,24.083 6.718,29.162 40.48,20.374 68.654,-30.868 12.035,-77.078 -0.015,-0.93 -0.029,-2.776 -0.044,-3.706 35.914,27.697 92.144,111.011 55.092,166.899 -28.088,41.76 -97.823,29.323 -83.516,-17.985 2.496,4.193 5.065,8.667 9.554,10.971 8.416,4.504 18.9,3.839 27.464,0.089 22.843,-10.103 14.189,-34.53 3.337,-42.689 -25.246,-19.378 -90.496,-10.005 -84.757,38.037 8.514,67.763 161.722,78.998 185.844,-18.541 7.575,4.841 15.538,8.215 23.517,10.245 7.979,-2.031 15.942,-5.404 23.517,-10.245 24.122,97.539 177.33,86.305 185.844,18.541 5.74,-48.042 -59.511,-57.415 -84.757,-38.037 -10.851,8.159 -19.506,32.586 3.338,42.689 8.564,3.75 19.048,4.416 27.464,-0.089 4.489,-2.304 7.058,-6.778 9.554,-10.971 14.307,47.308 -55.429,59.745 -83.517,17.985 -37.052,-55.888 19.178,-139.202 55.092,-166.899 -0.015,0.93 -0.029,2.776 -0.044,3.706 -56.619,46.21 -28.445,97.452 12.035,77.078 10.336,-5.08 14.84,-20.244 6.718,-29.162 -5.921,-8.314 -20.54,-9.775 -26.519,-0.93 -3.396,7.369 3.382,14.308 10.455,15.298 -15.384,13.041 -46.67,-14.655 1.078,-55.358 15.253,15.197 53.5,9.148 79.677,-22.71 -9.91,30.918 -1.036,56.311 28.026,74.14 22.621,14.788 30.073,17.487 23.921,43.161 36.414,-54.862 -76.713,-98.026 14.338,-192.297 2.938,-0.472 1.476,-2.614 0.073,-2.982 -10.572,8.624 -21.337,17.04 -30.92,26.771 -21.147,17.101 -37.286,42.764 -54.147,53.512 -41.954,27.651 -45.172,-8.26 -34.449,-16.744 68.709,-53.103 155.134,-85.132 162.352,-86.765 -36.201,16.897 -64.553,42.795 -73.564,82.261 -16.021,72.191 77.025,97.837 102.402,45.066 7.715,-15.883 2.345,-32.608 -24.94,-41.507 -2.089,24.166 -38.171,35.109 -43.604,3.943 -11.315,-57.682 52.595,-93.316 108.043,-112.132 -7.989,5.242 -16.567,9.879 -22.946,17.173 -16.959,16.895 -13.11,42.707 16.803,51.533 24.18,7.86 50.855,-13.576 40.828,-34.375 -10.701,-20.528 -46.776,-7.259 -27.73,14.057 -37.969,-1.113 -20.108,-45.92 38.672,-60.673 100.246,-22.88 290.246,-42.752 344.46,42.689 22.815,35.522 16.675,86.78 -20.85,83.295 1.742,-2.229 4.474,-4.268 4.179,-7.471 -0.266,-10.439 -11.385,-19.447 -21.691,-16.833 -24.548,5.115 -29.97,40.747 -4.932,52.109 58.656,27.045 145.171,-69.139 41.226,-140.085 -208.957,-140.983 -780.796,47.473 -764.537,256.913 -6.732,5.836 -14.018,8.946 -20.949,9.653 z"
   id="path2899"
   style="fill:#ffffff;stroke:none" />

	<path
   d="m 1015.54,104.465 c 6.931,0.707 14.217,3.817 20.948,9.653 -16.258,209.44 555.581,397.896 764.537,256.913 103.945,-70.946 17.43,-167.13 -41.226,-140.085 -25.038,11.361 -19.616,46.993 4.932,52.109 10.307,2.614 21.425,-6.393 21.691,-16.833 0.295,-3.204 -2.437,-5.242 -4.179,-7.471 37.525,-3.485 43.665,47.773 20.85,83.295 -54.214,85.441 -244.214,65.569 -344.46,42.689 -58.78,-14.753 -76.641,-59.561 -38.672,-60.673 -19.046,21.316 17.029,34.585 27.73,14.057 10.028,-20.799 -16.648,-42.235 -40.828,-34.375 -29.914,8.826 -33.763,34.638 -16.803,51.533 6.379,7.294 14.958,11.931 22.946,17.173 -55.448,-18.817 -119.358,-54.451 -108.043,-112.132 5.432,-31.167 41.515,-20.223 43.604,3.942 27.285,-8.899 32.655,-25.624 24.94,-41.507 -25.377,-52.771 -118.422,-27.125 -102.402,45.066 9.012,39.466 37.364,65.364 73.564,82.261 -7.218,-1.632 -93.642,-33.661 -162.352,-86.765 -10.724,-8.485 -7.505,-44.396 34.449,-16.744 16.861,10.748 33,36.411 54.147,53.512 9.583,9.731 20.347,18.147 30.92,26.771 1.403,-0.368 2.865,-2.51 -0.073,-2.982 -91.051,-94.271 22.076,-137.436 -14.338,-192.297 6.152,25.673 -1.299,28.373 -23.921,43.161 -29.062,17.829 -37.936,43.222 -28.026,74.14 -26.177,-31.858 -64.424,-37.907 -79.677,-22.71 -47.748,-40.703 -16.462,-68.399 -1.078,-55.358 -7.073,0.989 -13.85,7.929 -10.455,15.298 5.98,8.845 20.598,7.384 26.519,-0.93 8.121,-8.919 3.617,-24.083 -6.718,-29.162 -40.48,-20.374 -68.654,30.868 -12.035,77.078 0.015,0.93 0.029,2.776 0.044,3.706 -35.914,-27.697 -92.144,-111.011 -55.092,-166.899 28.088,-41.76 97.823,-29.323 83.517,17.985 -2.496,-4.193 -5.065,-8.667 -9.554,-10.971 -8.416,-4.504 -18.9,-3.839 -27.464,-0.089 -22.844,10.103 -14.189,34.53 -3.338,42.689 25.246,19.378 90.496,10.005 84.757,-38.037 -8.514,-67.763 -161.722,-78.997 -185.844,18.541 -7.575,-4.841 -15.538,-8.215 -23.517,-10.245 -7.979,2.031 -15.942,5.404 -23.517,10.245 C 967.901,2.478 814.693,13.712 806.179,81.476 c -5.74,48.042 59.511,57.415 84.757,38.037 10.851,-8.159 19.506,-32.586 -3.337,-42.689 -8.564,-3.75 -19.048,-4.415 -27.464,0.089 -4.489,2.304 -7.058,6.778 -9.554,10.971 -14.307,-47.308 55.429,-59.745 83.516,-17.985 37.052,55.888 -19.178,139.202 -55.092,166.899 0.015,-0.93 0.029,-2.776 0.044,-3.706 56.619,-46.21 28.445,-97.452 -12.035,-77.078 -10.336,5.08 -14.84,20.244 -6.718,29.162 5.921,8.314 20.54,9.775 26.519,0.93 3.396,-7.369 -3.382,-14.308 -10.454,-15.298 15.384,-13.041 46.67,14.655 -1.078,55.358 -15.253,-15.197 -53.5,-9.148 -79.677,22.71 9.91,-30.918 1.036,-56.311 -28.026,-74.14 -22.621,-14.788 -30.073,-17.487 -23.921,-43.161 -36.414,54.862 76.713,98.026 -14.338,192.297 -2.938,0.472 -1.477,2.614 -0.074,2.982 10.572,-8.624 21.337,-17.04 30.92,-26.771 21.147,-17.101 37.286,-42.764 54.147,-53.512 41.954,-27.651 45.172,8.26 34.449,16.744 -68.709,53.103 -155.134,85.132 -162.352,86.765 36.201,-16.897 64.553,-42.795 73.564,-82.261 16.021,-72.191 -77.025,-97.837 -102.402,-45.066 -7.715,15.883 -2.345,32.608 24.94,41.507 2.089,-24.166 38.171,-35.109 43.604,-3.942 11.315,57.682 -52.595,93.316 -108.043,112.132 7.989,-5.242 16.567,-9.879 22.946,-17.173 16.959,-16.895 13.11,-42.707 -16.804,-51.533 -24.18,-7.86 -50.855,13.576 -40.828,34.375 10.701,20.528 46.777,7.259 27.73,-14.057 37.969,1.113 20.108,45.92 -38.672,60.673 -100.246,22.88 -290.246,42.753 -344.46,-42.689 -22.815,-35.522 -16.675,-86.78 20.85,-83.295 -1.742,2.229 -4.474,4.268 -4.179,7.471 0.266,10.439 11.385,19.447 21.691,16.833 24.548,-5.115 29.97,-40.747 4.932,-52.109 -58.656,-27.045 -145.171,69.139 -41.226,140.085 208.956,140.983 780.795,-47.473 764.537,-256.913 6.731,-5.836 14.017,-8.946 20.949,-9.653 z"
   id="path2901"
   style="fill:#ffffff;stroke:none" />

	<path
   d="m 1015.54,1419.229 c -63.159,-43.272 -168.158,-83.432 -246.912,-111.47 36.82,19.432 197.614,76.959 246.912,161.775 49.297,-84.815 210.092,-142.342 246.912,-161.775 -78.754,28.038 -183.754,68.198 -246.912,111.47 z"
   id="path2903"
   style="fill:#ffffff;stroke:none" />

	<path
   d="m 1015.54,238.224 c 63.159,43.272 168.158,83.432 246.912,111.47 -36.82,-19.432 -197.615,-76.96 -246.912,-161.775 -49.297,84.815 -210.091,142.342 -246.912,161.775 78.753,-28.038 183.753,-68.198 246.912,-111.47 z"
   id="path2905"
   style="fill:#ffffff;stroke:none" />

	<path
   d="m 1765.69,325.91 c 17.93,-3.275 29.903,-14.729 25.102,-32.573 -5.153,3.397 -10.307,7.176 -16.479,8.402 -41.659,10.063 -73.526,-64.665 -8.726,-78.54 38.288,-8.565 83.148,13.696 87.902,65.443 2.274,-24.201 -7.383,-49.436 -25.914,-65.295 -6.718,-6.113 -15.548,-9.79 -21.1,-17.173 -8.716,-12.827 -2.044,-21.617 8.091,-19.86 -1.875,2.26 -5.079,4.253 -4.385,7.634 -0.192,4.4 4.799,6.408 8.549,5.862 7.058,0.104 11.532,-8.52 8.859,-14.663 -8.044,-19.392 -48.663,-6.849 -27.849,23.36 -16.804,-4.238 -35.025,-3.825 -51.238,2.539 -66.324,26.363 -38.686,123.853 17.188,114.864 z"
   id="path2907"
   style="fill:#ffffff;stroke:none" />

	<path
   d="m 265.39,1331.543 c -17.93,3.275 -29.903,14.729 -25.102,32.573 5.153,-3.397 10.307,-7.176 16.479,-8.402 41.659,-10.063 73.526,64.665 8.726,78.54 -38.288,8.565 -83.148,-13.696 -87.902,-65.443 -2.274,24.201 7.383,49.436 25.914,65.295 6.718,6.114 15.548,9.79 21.1,17.173 8.716,12.827 2.044,21.617 -8.091,19.86 1.875,-2.26 5.079,-4.253 4.385,-7.634 0.192,-4.4 -4.799,-6.408 -8.549,-5.862 -7.058,-0.104 -11.532,8.52 -8.859,14.663 8.044,19.392 48.663,6.849 27.849,-23.36 16.804,4.238 35.025,3.825 51.238,-2.539 66.324,-26.363 38.686,-123.853 -17.188,-114.864 z"
   id="path2909"
   style="fill:#ffffff;stroke:none" />

	<path
   d="m 1765.69,1331.543 c 17.93,3.275 29.903,14.729 25.102,32.573 -5.153,-3.397 -10.307,-7.176 -16.479,-8.402 -41.659,-10.063 -73.526,64.665 -8.726,78.54 38.288,8.565 83.148,-13.696 87.902,-65.443 2.274,24.201 -7.383,49.436 -25.914,65.295 -6.718,6.114 -15.548,9.79 -21.1,17.173 -8.716,12.827 -2.044,21.617 8.091,19.86 -1.875,-2.26 -5.079,-4.253 -4.385,-7.634 -0.192,-4.4 4.799,-6.408 8.549,-5.862 7.058,-0.104 11.532,8.52 8.859,14.663 -8.044,19.392 -48.663,6.849 -27.849,-23.36 -16.804,4.238 -35.025,3.825 -51.238,-2.539 -66.324,-26.363 -38.686,-123.853 17.188,-114.864 z"
   id="path2911"
   style="fill:#ffffff;stroke:none" />

	<path
   d="m 265.39,325.91 c -17.93,-3.275 -29.903,-14.729 -25.102,-32.573 5.153,3.397 10.307,7.176 16.479,8.402 41.659,10.063 73.526,-64.665 8.726,-78.54 -38.288,-8.565 -83.148,13.696 -87.902,65.443 -2.274,-24.201 7.383,-49.436 25.914,-65.295 6.718,-6.113 15.548,-9.79 21.1,-17.173 8.716,-12.827 2.044,-21.617 -8.091,-19.86 1.875,2.26 5.079,4.253 4.385,7.634 0.192,4.4 -4.799,6.408 -8.549,5.862 -7.058,0.104 -11.532,-8.52 -8.859,-14.663 8.044,-19.392 48.663,-6.849 27.849,23.36 16.804,-4.238 35.025,-3.825 51.238,2.539 66.324,26.363 38.686,123.853 -17.188,114.864 z"
   id="path2913"
   style="fill:#ffffff;stroke:none" />

	<path
   d="m 1015.54,261.581 c 37.857,12.081 80.743,24.928 81.325,25.052 -32.808,-12.401 -59.345,-27.133 -81.325,-41.625 -21.98,14.492 -48.517,29.223 -81.325,41.625 0.582,-0.124 43.468,-12.97 81.325,-25.052 z"
   id="path2915"
   style="fill:#ffffff;stroke:none" />

	<path
   d="m 1015.54,1395.872 c -37.857,-12.081 -80.743,-24.928 -81.325,-25.052 32.808,12.401 59.345,27.133 81.325,41.625 21.98,-14.492 48.517,-29.223 81.325,-41.625 -0.583,0.125 -43.468,12.971 -81.325,25.052 z"
   id="path2917"
   style="fill:#ffffff;stroke:none" />

	<path
   d="m 1986.348,828.727 c -128.125,-90.336 -118.774,-281.012 9.529,-360.724 -11.554,-63.587 -53.956,-178.039 -128.11,-199.001 3.957,24.272 12.278,65.731 -44.017,104.085 -76.243,52.464 -208.755,59.227 -301.861,53.97 C 1307.908,411.29 1201.439,313.059 1015.54,275.603 829.64,313.059 723.171,411.291 509.191,427.057 416.085,432.314 283.573,425.551 207.33,373.087 151.034,334.732 159.356,293.274 163.313,269.002 89.158,289.965 46.756,404.416 35.202,468.003 c 128.302,79.711 137.654,270.387 9.529,360.724 128.125,90.336 118.774,281.012 -9.529,360.724 11.554,63.587 53.956,178.039 128.11,199.001 -3.957,-24.272 -12.278,-65.731 44.017,-104.085 76.243,-52.464 208.755,-59.227 301.861,-53.97 213.981,15.767 320.45,113.998 506.349,151.453 185.899,-37.455 292.368,-135.687 506.349,-151.453 93.106,-5.257 225.618,1.506 301.861,53.97 56.296,38.355 47.974,79.813 44.017,104.085 74.154,-20.962 116.556,-135.414 128.11,-199.001 -128.301,-79.712 -137.653,-270.388 -9.528,-360.724 z M 1015.54,306.274 c 0.442,0.098 0.884,0.196 1.324,0.294 178.253,37.164 289.71,146.291 559.719,152.34 94.542,-1.4 211.3,-14.105 284.23,-73.934 17.689,-15.179 32.898,-34.286 39.75,-56.834 20.14,26.72 43.989,73.752 57.41,127.313 -130.165,101.881 -124.132,276.569 -22.008,373.274 -102.125,96.705 -108.157,271.392 22.008,373.274 -13.421,53.56 -37.27,100.592 -57.41,127.313 -6.851,-22.548 -22.06,-41.655 -39.75,-56.834 -72.93,-59.829 -189.688,-72.534 -284.23,-73.934 -270.01,6.05 -381.466,115.176 -559.719,152.34 -0.44,0.099 -0.882,0.197 -1.324,0.294 -0.442,-0.098 -0.884,-0.196 -1.324,-0.294 -178.253,-37.164 -289.71,-146.291 -559.719,-152.34 -94.542,1.4 -211.3,14.105 -284.23,73.934 -17.689,15.179 -32.898,34.287 -39.75,56.834 -20.14,-26.72 -43.989,-73.752 -57.41,-127.313 C 203.272,1100.12 197.239,925.432 95.115,828.727 197.24,732.022 203.272,557.335 73.107,455.453 c 13.421,-53.56 37.27,-100.592 57.41,-127.313 6.851,22.548 22.061,41.655 39.75,56.834 72.93,59.829 189.688,72.534 284.23,73.934 270.01,-6.05 381.466,-115.176 559.719,-152.34 0.44,-0.098 0.881,-0.196 1.324,-0.294 z"
   id="path2919"
   style="fill:#ffffff;stroke:none" />

	<path
   d="m 1789.891,344.427 c 1.182,-8.757 -9.198,-13.851 -16.611,-11.385 -5.862,1.477 -10.071,8.24 -7.354,14.013 4.415,9.938 22.252,8.579 23.965,-2.628 z"
   id="path2921"
   style="fill:#ffffff;stroke:none" />

	<path
   d="m 241.188,1313.027 c -1.182,8.757 9.199,13.85 16.611,11.385 5.862,-1.477 10.071,-8.24 7.354,-14.013 -4.414,-9.938 -22.252,-8.58 -23.965,2.628 z"
   id="path2923"
   style="fill:#ffffff;stroke:none" />

	<path
   d="m 1789.891,1313.027 c 1.182,8.757 -9.198,13.85 -16.611,11.385 -5.862,-1.477 -10.071,-8.24 -7.354,-14.013 4.415,-9.938 22.252,-8.58 23.965,2.628 z"
   id="path2925"
   style="fill:#ffffff;stroke:none" />

	<path
   d="m 241.188,344.427 c -1.182,-8.757 9.199,-13.851 16.611,-11.385 5.862,1.477 10.071,8.24 7.354,14.013 -4.414,9.938 -22.252,8.579 -23.965,-2.628 z"
   id="path2927"
   style="fill:#ffffff;stroke:none" />

	<path
   d="m 1754.246,352.46 c -4.563,1.536 -7.604,7.191 -5.3,11.665 3.78,8.505 18.856,7.442 20.569,-2.067 1.136,-7.901 -8.742,-12.95 -15.269,-9.598 z"
   id="path2929"
   style="fill:#ffffff;stroke:none" />

	<path
   d="m 276.833,1304.994 c 4.563,-1.536 7.604,-7.191 5.3,-11.665 -3.78,-8.505 -18.856,-7.442 -20.569,2.067 -1.136,7.9 8.742,12.95 15.269,9.598 z"
   id="path2931"
   style="fill:#ffffff;stroke:none" />

	<path
   d="m 1754.246,1304.994 c -4.563,-1.536 -7.604,-7.191 -5.3,-11.665 3.78,-8.505 18.856,-7.442 20.569,2.067 1.136,7.9 -8.742,12.95 -15.269,9.598 z"
   id="path2933"
   style="fill:#ffffff;stroke:none" />

	<path
   d="m 276.833,352.46 c 4.563,1.536 7.604,7.191 5.3,11.665 -3.78,8.505 -18.856,7.442 -20.569,-2.067 -1.136,-7.901 8.742,-12.95 15.269,-9.598 z"
   id="path2935"
   style="fill:#ffffff;stroke:none" />

	<path
   d="m 1733.766,364.523 c -4.164,1.211 -7.619,5.995 -5.788,10.307 2.776,8.357 17.394,7.708 19.108,-0.989 1.549,-7.177 -7.384,-11.636 -13.32,-9.318 z"
   id="path2937"
   style="fill:#ffffff;stroke:none" />

	<path
   d="m 297.314,1292.93 c 4.164,-1.211 7.619,-5.995 5.788,-10.307 -2.776,-8.357 -17.394,-7.708 -19.107,0.989 -1.55,7.177 7.383,11.636 13.319,9.318 z"
   id="path2939"
   style="fill:#ffffff;stroke:none" />

	<path
   d="m 1733.766,1292.93 c -4.164,-1.211 -7.619,-5.995 -5.788,-10.307 2.776,-8.357 17.394,-7.708 19.108,0.989 1.549,7.177 -7.384,11.636 -13.32,9.318 z"
   id="path2941"
   style="fill:#ffffff;stroke:none" />

	<path
   d="m 297.314,364.523 c 4.164,1.211 7.619,5.995 5.788,10.307 -2.776,8.357 -17.394,7.708 -19.107,-0.989 -1.55,-7.177 7.383,-11.636 13.319,-9.318 z"
   id="path2943"
   style="fill:#ffffff;stroke:none" />

	<path
   d="m 1724.876,381.342 c 0.177,-7.294 -9.406,-10.307 -14.81,-6.763 -3.883,2.097 -4.917,7.811 -2.009,11.119 4.667,5.641 16.111,3.544 16.819,-4.356 z"
   id="path2945"
   style="fill:#ffffff;stroke:none" />

	<path
   d="m 306.203,1276.111 c -0.177,7.294 9.406,10.307 14.81,6.763 3.883,-2.097 4.917,-7.811 2.009,-11.119 -4.666,-5.64 -16.11,-3.544 -16.819,4.356 z"
   id="path2947"
   style="fill:#ffffff;stroke:none" />

	<path
   d="m 1724.876,1276.111 c 0.177,7.294 -9.406,10.307 -14.81,6.763 -3.883,-2.097 -4.917,-7.811 -2.009,-11.119 4.667,-5.64 16.111,-3.544 16.819,4.356 z"
   id="path2949"
   style="fill:#ffffff;stroke:none" />

	<path
   d="m 306.203,381.342 c -0.177,-7.294 9.406,-10.307 14.81,-6.763 3.883,2.097 4.917,7.811 2.009,11.119 -4.666,5.641 -16.11,3.544 -16.819,-4.356 z"
   id="path2951"
   style="fill:#ffffff;stroke:none" />

	<path
   d="m 1686.499,392.608 c 4.622,4.283 14.117,1.492 14.146,-5.271 0.31,-6.306 -7.826,-9.288 -12.728,-6.468 -4.518,1.965 -5.567,8.83 -1.418,11.739 z"
   id="path2953"
   style="fill:#ffffff;stroke:none" />

	<path
   d="m 344.58,1264.845 c -4.622,-4.283 -14.117,-1.492 -14.146,5.271 -0.31,6.306 7.826,9.288 12.728,6.468 4.518,-1.964 5.567,-8.83 1.418,-11.739 z"
   id="path2955"
   style="fill:#ffffff;stroke:none" />

	<path
   d="m 1686.499,1264.845 c 4.622,-4.283 14.117,-1.492 14.146,5.271 0.31,6.306 -7.826,9.288 -12.728,6.468 -4.518,-1.964 -5.567,-8.83 -1.418,-11.739 z"
   id="path2957"
   style="fill:#ffffff;stroke:none" />

	<path
   d="m 344.58,392.608 c -4.622,4.283 -14.117,1.492 -14.146,-5.271 -0.31,-6.306 7.826,-9.288 12.728,-6.468 4.518,1.965 5.567,8.83 1.418,11.739 z"
   id="path2959"
   style="fill:#ffffff;stroke:none" />

	<path
   d="m 1677.759,391.708 c 0.251,-5.346 -6.098,-8.299 -10.647,-6.689 -4.297,0.93 -7.043,6.556 -4.001,10.145 3.78,5.285 14.19,3.558 14.648,-3.456 z"
   id="path2961"
   style="fill:#ffffff;stroke:none" />

	<path
   d="m 353.321,1265.745 c -0.251,5.346 6.098,8.299 10.647,6.689 4.297,-0.93 7.043,-6.556 4.001,-10.145 -3.78,-5.285 -14.19,-3.558 -14.648,3.456 z"
   id="path2963"
   style="fill:#ffffff;stroke:none" />

	<path
   d="m 1677.759,1265.745 c 0.251,5.346 -6.098,8.299 -10.647,6.689 -4.297,-0.93 -7.043,-6.556 -4.001,-10.145 3.78,-5.285 14.19,-3.558 14.648,3.456 z"
   id="path2965"
   style="fill:#ffffff;stroke:none" />

	<path
   d="m 353.321,391.708 c -0.251,-5.346 6.098,-8.299 10.647,-6.689 4.297,0.93 7.043,6.556 4.001,10.145 -3.78,5.285 -14.19,3.558 -14.648,-3.456 z"
   id="path2967"
   style="fill:#ffffff;stroke:none" />

	<path
   d="m 1654.797,394.646 c 1.197,-5.921 -6.748,-9.214 -11.192,-6.32 -2.85,1.373 -4.283,5.33 -2.319,8.003 2.939,4.976 12.167,4.135 13.511,-1.683 z"
   id="path2969"
   style="fill:#ffffff;stroke:none" />

	<path
   d="m 376.282,1262.807 c -1.197,5.921 6.748,9.214 11.192,6.32 2.85,-1.373 4.283,-5.33 2.319,-8.003 -2.939,-4.976 -12.167,-4.134 -13.511,1.683 z"
   id="path2971"
   style="fill:#ffffff;stroke:none" />

	<path
   d="m 1654.797,1262.807 c 1.197,5.921 -6.748,9.214 -11.192,6.32 -2.85,-1.373 -4.283,-5.33 -2.319,-8.003 2.939,-4.976 12.167,-4.134 13.511,1.683 z"
   id="path2973"
   style="fill:#ffffff;stroke:none" />

	<path
   d="m 376.282,394.646 c -1.197,-5.921 6.748,-9.214 11.192,-6.32 2.85,1.373 4.283,5.33 2.319,8.003 -2.939,4.976 -12.167,4.135 -13.511,-1.683 z"
   id="path2975"
   style="fill:#ffffff;stroke:none" />

	<path
   d="m 1625.325,399.326 c 3.381,1.698 8.371,-0.531 8.534,-4.533 -0.28,-4.355 -6.246,-6.438 -9.494,-3.839 -3.234,1.817 -2.688,7.398 0.96,8.372 z"
   id="path2977"
   style="fill:#ffffff;stroke:none" />

	<path
   d="m 405.754,1258.127 c -3.381,-1.698 -8.371,0.531 -8.534,4.533 0.28,4.355 6.246,6.438 9.494,3.839 3.234,-1.817 2.688,-7.398 -0.96,-8.372 z"
   id="path2979"
   style="fill:#ffffff;stroke:none" />

	<path
   d="m 1625.325,1258.127 c 3.381,-1.698 8.371,0.531 8.534,4.533 -0.28,4.355 -6.246,6.438 -9.494,3.839 -3.234,-1.817 -2.688,-7.398 0.96,-8.372 z"
   id="path2981"
   style="fill:#ffffff;stroke:none" />

	<path
   d="m 405.754,399.326 c -3.381,1.698 -8.371,-0.531 -8.534,-4.533 0.28,-4.355 6.246,-6.438 9.494,-3.839 3.234,1.817 2.688,7.398 -0.96,8.372 z"
   id="path2983"
   style="fill:#ffffff;stroke:none" />

	<path
   d="m 1595.69,399.077 c 3.47,-0.015 4.297,-5.803 0.724,-6.512 -2.924,-0.96 -5.05,1.182 -6.246,3.588 1.564,1.299 3.085,3.529 5.522,2.924 z"
   id="path2985"
   style="fill:#ffffff;stroke:none" />

	<path
   d="m 435.39,1258.377 c -3.47,0.015 -4.297,5.803 -0.724,6.512 2.924,0.96 5.05,-1.182 6.246,-3.588 -1.565,-1.3 -3.085,-3.529 -5.522,-2.924 z"
   id="path2987"
   style="fill:#ffffff;stroke:none" />

	<path
   d="m 1595.69,1258.377 c 3.47,0.015 4.297,5.803 0.724,6.512 -2.924,0.96 -5.05,-1.182 -6.246,-3.588 1.564,-1.3 3.085,-3.529 5.522,-2.924 z"
   id="path2989"
   style="fill:#ffffff;stroke:none" />

	<path
   d="m 435.39,399.077 c -3.47,-0.015 -4.297,-5.803 -0.724,-6.512 2.924,-0.96 5.05,1.182 6.246,3.588 -1.565,1.299 -3.085,3.529 -5.522,2.924 z"
   id="path2991"
   style="fill:#ffffff;stroke:none" />

	<path
   d="m 1607.117,399.681 c 2.865,1.609 7.604,-0.133 7.501,-3.81 0.251,-3.972 -5.183,-5.729 -8.018,-3.529 -2.937,1.478 -2.317,6.084 0.517,7.339 z"
   id="path2993"
   style="fill:#ffffff;stroke:none" />

	<path
   d="m 423.962,1257.773 c -2.864,-1.609 -7.604,0.133 -7.501,3.81 -0.251,3.972 5.183,5.729 8.018,3.529 2.937,-1.478 2.317,-6.085 -0.517,-7.339 z"
   id="path2995"
   style="fill:#ffffff;stroke:none" />

	<path
   d="m 1607.117,1257.773 c 2.865,-1.609 7.604,0.133 7.501,3.81 0.251,3.972 -5.183,5.729 -8.018,3.529 -2.937,-1.478 -2.317,-6.085 0.517,-7.339 z"
   id="path2997"
   style="fill:#ffffff;stroke:none" />

	<path
   d="m 423.962,399.681 c -2.864,1.609 -7.604,-0.133 -7.501,-3.81 -0.251,-3.972 5.183,-5.729 8.018,-3.529 2.937,1.478 2.317,6.084 -0.517,7.339 z"
   id="path2999"
   style="fill:#ffffff;stroke:none" />

</g>
  </g>
</svg>
